<svg width="1024" height="1024" viewBox="0 0 1024 1024" fill="none" xmlns="http://www.w3.org/2000/svg">
<path d="M716.225 325.641C721.797 325.641 725.663 331.195 723.727 336.421L651.892 530.324C650.73 533.462 647.737 535.545 644.391 535.545H408.566C403.056 535.545 399.196 530.104 401.015 524.903L421.609 466.028C422.732 462.818 425.761 460.669 429.161 460.669H589.362C592.642 460.669 595.59 458.667 596.798 455.618L618.639 400.528C620.721 395.277 616.851 389.58 611.202 389.58H454.352C448.688 389.58 444.818 383.856 446.928 378.6L466.166 330.662C467.383 327.629 470.323 325.641 473.59 325.641H716.225Z" fill="#3982D8"/>
<path d="M5.08363 336.927C2.69884 331.633 6.57121 325.641 12.3778 325.641H88.5035C91.7168 325.641 94.6182 327.564 95.8707 330.523L216.161 614.704C218.952 621.298 228.338 621.185 230.969 614.524L300.867 437.541C302.074 434.486 305.024 432.479 308.308 432.479H370.297C375.912 432.479 379.78 438.112 377.763 443.353L281.283 694.05C280.094 697.139 277.126 699.177 273.817 699.177H173.43C170.283 699.177 167.428 697.332 166.135 694.462L5.08363 336.927Z" fill="#3982D8"/>
<path d="M777.535 325.641C774.221 325.641 771.249 327.685 770.064 330.781L633.17 688.316C631.165 693.554 635.032 699.177 640.641 699.177H702.606C705.913 699.177 708.879 697.142 710.069 694.057L825.582 394.7C826.772 391.615 829.739 389.58 833.046 389.58H899.221C904.829 389.58 908.696 395.2 906.693 400.437L870.597 494.821C868.594 500.059 872.461 505.679 878.069 505.679H946.424C949.693 505.679 952.633 503.69 953.849 500.655L1019.6 336.618C1021.71 331.362 1017.84 325.641 1012.17 325.641H777.535Z" fill="#FE5C36"/>
<path d="M552.323 574.43C553.592 571.508 556.475 569.617 559.661 569.617H627.373C633.041 569.617 636.911 575.347 634.795 580.605L589.076 694.164C587.857 697.193 584.919 699.177 581.655 699.177H344.756C339.041 699.177 335.17 693.357 337.377 688.086L384.94 574.526C386.185 571.553 389.094 569.617 392.319 569.617H456.291C461.971 569.617 465.841 575.37 463.702 580.631L447 621.701C444.861 626.961 448.732 632.714 454.411 632.714H521.763C524.949 632.714 527.831 630.824 529.101 627.901L552.323 574.43Z" fill="#FE5C36"/>
<path d="M339.831 330.576C341.07 327.589 343.986 325.641 347.221 325.641H411.504C417.207 325.641 421.079 331.439 418.894 336.707L396.564 390.534C395.325 393.521 392.409 395.469 389.175 395.469H324.891C319.188 395.469 315.316 389.671 317.502 384.403L339.831 330.576Z" fill="#FE5C36"/>
</svg>
