<svg width="1024" height="1024" viewBox="0 0 1024 1024" fill="none" xmlns="http://www.w3.org/2000/svg">
<path d="M684.626 370C690.198 370 694.063 375.554 692.127 380.779L631.684 543.935C630.521 547.073 627.528 549.156 624.182 549.156H425.369C419.859 549.156 415.999 543.715 417.818 538.514L434.576 490.607C435.698 487.398 438.727 485.248 442.127 485.248H577.233C580.513 485.248 583.461 483.246 584.67 480.197L602.382 435.521C604.464 430.269 600.594 424.572 594.945 424.572H464.53C458.866 424.572 454.996 418.849 457.105 413.593L472.585 375.02C473.802 371.988 476.741 370 480.009 370H684.626Z" fill="#3982D8"/>
<path d="M80.0836 381.286C77.6989 375.991 81.5712 370 87.3778 370H149.763C152.976 370 155.877 371.923 157.13 374.882L258.38 614.081C261.171 620.676 270.557 620.562 273.188 613.901L331.502 466.249C332.708 463.195 335.659 461.188 338.943 461.188H389.348C394.963 461.188 398.831 466.821 396.814 472.061L315.368 683.692C314.18 686.78 311.212 688.818 307.902 688.818H223.782C220.635 688.818 217.781 686.973 216.488 684.104L80.0836 381.286Z" fill="#3982D8"/>
<path d="M739.445 370C736.13 370 733.159 372.044 731.974 375.139L616.03 677.958C614.024 683.196 617.892 688.818 623.501 688.818H673.881C677.188 688.818 680.154 686.783 681.345 683.698L779.358 429.692C780.548 426.607 783.514 424.572 786.821 424.572H840.796C846.404 424.572 850.272 430.192 848.269 435.43L818.676 512.807C816.673 518.045 820.541 523.665 826.148 523.665H881.995C885.264 523.665 888.204 521.676 889.42 518.641L944.6 380.976C946.707 375.721 942.837 370 937.175 370H739.445Z" fill="#FE5C36"/>
<path d="M546.11 583.05C547.38 580.128 550.262 578.237 553.448 578.237H608.738C614.405 578.237 618.276 583.967 616.159 589.225L578.081 683.806C576.862 686.834 573.925 688.818 570.66 688.818H371.016C365.301 688.818 361.429 682.999 363.637 677.728L403.251 583.147C404.496 580.173 407.405 578.237 410.63 578.237H462.71C468.389 578.237 472.26 583.99 470.121 589.251L457.178 621.078C455.038 626.339 458.909 632.091 464.588 632.091H519.564C522.75 632.091 525.633 630.201 526.902 627.278L546.11 583.05Z" fill="#FE5C36"/>
<path d="M364.751 374.935C365.991 371.947 368.907 370 372.141 370H424.47C430.174 370 434.045 375.797 431.86 381.065L413.773 424.664C412.534 427.651 409.618 429.599 406.384 429.599H354.054C348.351 429.599 344.48 423.801 346.665 418.533L364.751 374.935Z" fill="#FE5C36"/>
</svg>
