<svg width="1200" height="630" viewBox="0 0 1200 630" fill="none" xmlns="http://www.w3.org/2000/svg">
<rect width="1200" height="630" fill="#1E293B"/>
<path d="M757.036 169C762.609 169 766.474 174.554 764.538 179.779L709.714 327.766C708.552 330.904 705.559 332.987 702.212 332.987H521.659C516.149 332.987 512.288 327.547 514.107 322.345L528.972 279.849C530.095 276.64 533.124 274.491 536.524 274.491H659.25C662.53 274.491 665.478 272.488 666.687 269.439L682.362 229.9C684.444 224.649 680.574 218.952 674.925 218.952H557.55C551.887 218.952 548.017 213.228 550.126 207.972L563.751 174.02C564.969 170.988 567.908 169 571.176 169H757.036Z" fill="#3982D8"/>
<path d="M205.084 180.286C202.699 174.991 206.571 169 212.378 169H267.984C271.197 169 274.098 170.923 275.351 173.882L367.208 390.89C370 397.485 379.385 397.371 382.016 390.71L434.615 257.528C435.822 254.474 438.772 252.467 442.056 252.467H486.746C492.361 252.467 496.229 258.1 494.212 263.34L420.184 455.698C418.995 458.786 416.027 460.824 412.718 460.824H336.623C333.476 460.824 330.621 458.979 329.329 456.11L205.084 180.286Z" fill="#3982D8"/>
<path d="M808.653 169C805.339 169 802.367 171.044 801.182 174.139L695.574 449.964C693.568 455.202 697.436 460.824 703.045 460.824H747.71C751.017 460.824 753.983 458.79 755.174 455.704L844.554 224.072C845.744 220.987 848.71 218.952 852.017 218.952H899.974C905.581 218.952 909.449 224.572 907.446 229.81L881.062 298.796C879.059 304.034 882.927 309.654 888.534 309.654H938.21C941.479 309.654 944.419 307.665 945.635 304.631L995.6 179.976C997.707 174.721 993.837 169 988.175 169H808.653Z" fill="#FE5C36"/>
<path d="M631.045 364.419C632.314 361.497 635.197 359.606 638.383 359.606H687.544C693.212 359.606 697.082 365.336 694.966 370.594L660.657 455.812C659.438 458.841 656.501 460.824 653.236 460.824H471.971C466.256 460.824 462.384 455.005 464.592 449.734L500.284 364.515C501.53 361.542 504.439 359.606 507.663 359.606H553.877C559.556 359.606 563.427 365.359 561.287 370.62L550.199 397.887C548.059 403.148 551.93 408.901 557.609 408.901H606.479C609.665 408.901 612.548 407.01 613.817 404.088L631.045 364.419Z" fill="#FE5C36"/>
<path d="M465.045 173.935C466.285 170.947 469.201 169 472.435 169H518.867C524.57 169 528.442 174.797 526.256 180.065L510.263 218.618C509.024 221.605 506.108 223.553 502.874 223.553H456.442C450.738 223.553 446.867 217.755 449.052 212.487L465.045 173.935Z" fill="#FE5C36"/>
</svg>
