<svg width="1024" height="404" viewBox="0 0 1024 404" fill="none" xmlns="http://www.w3.org/2000/svg">
<path d="M706.113 24C711.686 24 715.551 29.5541 713.615 34.7791L645.426 218.843C644.263 221.981 641.27 224.064 637.924 224.064H413.943C408.433 224.064 404.573 218.624 406.392 213.423L425.759 158.057C426.881 154.848 429.91 152.699 433.31 152.699H585.481C588.761 152.699 591.709 150.696 592.917 147.647L613.437 95.8896C615.519 90.638 611.649 84.9413 606 84.9413H457.609C451.945 84.9413 448.075 79.2179 450.184 73.9617L468.22 29.0205C469.437 25.9876 472.377 24 475.644 24H706.113Z" fill="#3982D8"/>
<path d="M29.0836 35.2857C26.6988 29.9914 30.5712 24 36.3778 24H108.106C111.32 24 114.221 25.9225 115.474 28.8816L229.671 298.668C232.463 305.263 241.848 305.149 244.479 298.488L310.67 130.891C311.877 127.837 314.827 125.83 318.111 125.83H376.393C382.008 125.83 385.876 131.463 383.86 136.703L292.19 374.899C291.002 377.988 288.034 380.026 284.724 380.026H189.542C186.395 380.026 183.541 378.181 182.248 375.311L29.0836 35.2857Z" fill="#3982D8"/>
<path d="M765.346 24C762.032 24 759.06 26.044 757.875 29.1394L627.685 369.165C625.68 374.403 629.547 380.026 635.156 380.026H693.414C696.721 380.026 699.687 377.991 700.877 374.906L810.79 90.0613C811.981 86.976 814.947 84.9413 818.254 84.9413H880.525C886.133 84.9413 890.001 90.5612 887.997 95.799L853.982 184.74C851.979 189.978 855.847 195.598 861.454 195.598H925.806C929.076 195.598 932.016 193.609 933.232 190.574L995.6 34.9764C997.707 29.7208 993.837 24 988.175 24H765.346Z" fill="#FE5C36"/>
<path d="M550.335 261.352C551.604 258.43 554.487 256.539 557.673 256.539H621.41C627.078 256.539 630.948 262.27 628.831 267.527L585.558 375.014C584.338 378.042 581.401 380.026 578.136 380.026H353.159C347.444 380.026 343.573 374.207 345.781 368.935L390.799 261.449C392.045 258.475 394.954 256.539 398.178 256.539H458.345C464.025 256.539 467.895 262.292 465.756 267.553L450.257 305.665C448.118 310.926 451.988 316.679 457.668 316.679H521.059C524.245 316.679 527.128 314.788 528.397 311.866L550.335 261.352Z" fill="#FE5C36"/>
<path d="M347.806 28.9346C349.045 25.9473 351.961 24 355.195 24H415.653C421.357 24 425.228 29.7974 423.043 35.0654L402.071 85.6196C400.832 88.6069 397.916 90.5542 394.682 90.5542H334.223C328.52 90.5542 324.649 84.7568 326.834 79.4888L347.806 28.9346Z" fill="#FE5C36"/>
</svg>
